<svg xmlns="http://www.w3.org/2000/svg" xmlns:xlink="http://www.w3.org/1999/xlink" viewBox="0 0 88.95 34.38" width="90px" height="35px"><defs><style>.cls-1{isolation:isolate;}.cls-2{fill:#30a8df;}.cls-3{fill:url(#linear-gradient);}.cls-4{fill:url(#linear-gradient-2);}.cls-5{fill:url(#linear-gradient-3);}.cls-6{fill:url(#linear-gradient-4);}.cls-7{fill:url(#linear-gradient-5);}.cls-8{fill:url(#linear-gradient-6);}.cls-12,.cls-9{opacity:0.5;}.cls-9{fill:url(#linear-gradient-7);}.cls-10,.cls-11{opacity:0.2;}.cls-10{fill:url(#linear-gradient-8);}.cls-11{fill:url(#linear-gradient-9);}.cls-12{fill:url(#linear-gradient-10);}.cls-13{opacity:0.1;}.cls-14{fill:url(#linear-gradient-11);}.cls-15{fill:url(#linear-gradient-12);}.cls-16{opacity:0.27;mix-blend-mode:multiply;fill:url(#radial-gradient);}.cls-17{fill:#8cc02c;mix-blend-mode:soft-light;}</style><linearGradient id="linear-gradient" x1="50.15" y1="34.21" x2="50.15" y2="4.25" gradientUnits="userSpaceOnUse"><stop offset="0" stop-color="#3357a0"/><stop offset="0.26" stop-color="#326fb3"/><stop offset="0.75" stop-color="#3198d3"/><stop offset="1" stop-color="#30a8df"/></linearGradient><linearGradient id="linear-gradient-2" x1="41.17" y1="33.44" x2="41.17" y2="0.08" xlink:href="#linear-gradient"/><linearGradient id="linear-gradient-3" x1="13.01" y1="114.13" x2="13.01" y2="99.96" gradientTransform="translate(8.25 -80.61) rotate(7.78)" gradientUnits="userSpaceOnUse"><stop offset="0.67" stop-color="#136432"/><stop offset="1" stop-color="#339e48"/></linearGradient><linearGradient id="linear-gradient-4" x1="13.01" y1="97.78" x2="13.01" y2="81.28" gradientTransform="translate(8.25 -80.61) rotate(7.78)" gradientUnits="userSpaceOnUse"><stop offset="0" stop-color="#317e43"/><stop offset="0.52" stop-color="#9dc13a"/></linearGradient><linearGradient id="linear-gradient-5" x1="13.01" y1="97.78" x2="13.01" y2="81.28" gradientTransform="translate(8.25 -80.61) rotate(7.78)" gradientUnits="userSpaceOnUse"><stop offset="0.24" stop-color="#9dc13a"/><stop offset="1" stop-color="#cddc97"/></linearGradient><linearGradient id="linear-gradient-6" x1="12.73" y1="96.4" x2="14.42" y2="104.82" gradientTransform="translate(8.25 -80.61) rotate(7.78)" gradientUnits="userSpaceOnUse"><stop offset="0" stop-color="#9dc13a"/><stop offset="1" stop-color="#317e43"/></linearGradient><linearGradient id="linear-gradient-7" x1="10.73" y1="101.52" x2="15.97" y2="106.27" xlink:href="#linear-gradient-6"/><linearGradient id="linear-gradient-8" x1="16.51" y1="97.97" x2="20.5" y2="109.71" gradientTransform="translate(8.25 -80.61) rotate(7.78)" gradientUnits="userSpaceOnUse"><stop offset="0" stop-color="#9dc13a"/><stop offset="0.53" stop-color="#317e43"/></linearGradient><linearGradient id="linear-gradient-9" x1="9.36" y1="103.62" x2="10.53" y2="109.48" xlink:href="#linear-gradient-6"/><linearGradient id="linear-gradient-10" x1="12.51" y1="92.01" x2="12.51" y2="98.89" gradientTransform="translate(8.25 -80.61) rotate(7.78)" gradientUnits="userSpaceOnUse"><stop offset="0.24" stop-color="#9dc13a"/><stop offset="1" stop-color="#f9f3ae"/></linearGradient><linearGradient id="linear-gradient-11" x1="5.04" y1="96" x2="9.94" y2="96" xlink:href="#linear-gradient-10"/><linearGradient id="linear-gradient-12" x1="15.21" y1="91.51" x2="17.87" y2="91.51" xlink:href="#linear-gradient-10"/><radialGradient id="radial-gradient" cx="13.01" cy="97.9" r="11.5" gradientTransform="translate(8.25 -80.61) rotate(7.78)" gradientUnits="userSpaceOnUse"><stop offset="0" stop-color="#339e48"/><stop offset="1" stop-color="#1a6b34"/></radialGradient></defs><title>the-sims-franchise-hub-nav-logo-nl</title><g class="cls-1"><g id="Layer_2" data-name="Layer 2"><g id="Layer_1_copy_2" data-name="Layer 1 copy 2"><polygon class="cls-2" points="86.61 8.34 86.92 8.33 86.92 7.26 87.32 7.26 87.32 6.99 86.21 6.99 86.21 7.26 86.61 7.26 86.61 8.34"/><polygon class="cls-2" points="87.89 7.42 88.26 8.02 88.29 8.02 88.66 7.43 88.66 8.34 88.95 8.33 88.95 6.99 88.63 6.99 88.28 7.56 87.93 6.99 87.6 6.99 87.6 8.33 87.89 8.34 87.89 7.42"/><path class="cls-3" d="M43.71,7.1V33.53H36.2V29.39a11.6,11.6,0,0,0,1.38-5.66,10.36,10.36,0,0,0-1.38-5.52V7.1Zm36.57,9.78c-2.29-.71-3.7-1.21-3.7-2.5C76.58,13.3,78,12.7,79,12.7a5.86,5.86,0,0,1,4.28,1.83l.25.22,3.8-4.83-.24-.19a13.25,13.25,0,0,0-8.27-3c-4.61,0-9.5,2.83-9.5,8.09,0,5.67,4.37,7.07,7.57,8.09,2.3.74,3.71,1.26,3.71,2.53,0,1.46-2,1.94-3,1.94a5.75,5.75,0,0,1-4.51-1.92l-.25-.28-2.5,3.19-4-21.3h-6.2L57.73,17.86,55,4.22H48.94L44,33.54h7.16l1.44-9.39,1.68,9.39h6.64l1.78-9.46,1.2,9.46h7.47l-.32-1.39.06,0a14.64,14.64,0,0,0,6.76,1.57c6.06,0,10-3.42,10-8.72C87.86,19.22,83.48,17.87,80.28,16.88ZM27.33,14.15c-2.77-.85-5.16-1.59-5.16-3.83C22.17,8.4,24.43,7.5,26,7.5A7.63,7.63,0,0,1,31.3,9.56l.26.2,3.89-4.93-.26-.2a16.11,16.11,0,0,0-9.46-3.18c-5.44,0-11.23,3.32-11.23,9.47,0,6.62,4.79,8.15,9,9.51,2.77.88,5.17,1.65,5.17,3.85s-2.75,3.06-4.48,3.06c-4.1,0-7-2.94-7.93-3.81l-3.85,5.55c3.38,2.79,6.19,4.12,8.91,4.64a19.61,19.61,0,0,0,3.19.27,13.42,13.42,0,0,0,8.35-2.56,9.42,9.42,0,0,0,3.48-7.7C36.36,16.94,31.56,15.46,27.33,14.15Z"/><path class="cls-4" d="M36.19,0h2.06a3,3,0,1,1,0,6H36.19Zm1.47,4.69h.46a1.72,1.72,0,0,0,0-3.43h-.46Zm5.61-.28a.89.89,0,0,0,.73.32,2.06,2.06,0,0,0,1.29-.52l.71,1A3.5,3.5,0,0,1,44,6a2.43,2.43,0,0,1-2.4-2.32A2.41,2.41,0,0,1,43.91,1.2a2.49,2.49,0,0,1,2.23,1.37Zm1.25-1.9a.79.79,0,0,0-.6-.19,1.12,1.12,0,0,0-1.05,1.13v.16Z"/><polygon class="cls-5" points="15.8 19.11 5.67 34.38 0 16.95 15.8 19.11"/><polygon class="cls-6" points="0 16.95 10.13 1.69 15.8 19.11 0 16.95"/><polygon class="cls-7" points="4.03 17.5 10.13 1.69 11.77 18.56 4.03 17.5"/><polygon class="cls-8" points="11.77 18.56 5.67 34.38 4.03 17.5 11.77 18.56"/><path class="cls-9" d="M9.24,25.12l1.54-4c-2.23.64-4.28,1.51-6.2,2.13l.5,5.15C6.39,27.37,7.81,26.17,9.24,25.12Z"/><path class="cls-10" d="M9.24,25.12a21,21,0,0,1,4.18-2.42L15,20.3a23.67,23.67,0,0,0-4.23.82Z"/><path class="cls-11" d="M2.25,23.87,4,29.28c.36-.28.7-.58,1.07-.88l-.5-5.15A19.55,19.55,0,0,1,2.25,23.87Z"/><path class="cls-12" d="M5.35,14.08,4,17.5l3.7.51c1.25-1.26,2.46-2.56,3.64-3.71l-.3-3.11A61,61,0,0,1,5.35,14.08Z"/><g class="cls-13"><path class="cls-14" d="M1.22,15.11,0,17l4,.55,1.33-3.42A14.07,14.07,0,0,1,1.22,15.11Z"/><path class="cls-15" d="M11.36,14.3a27.64,27.64,0,0,1,2.23-2l-.67-2.06c-.62.29-1.23.6-1.86.94Z"/></g><polygon class="cls-16" points="15.8 19.11 5.67 34.38 0 16.95 15.8 19.11"/><polygon class="cls-17" points="15.8 19.11 5.67 34.38 0 16.95 15.8 19.11"/><polygon class="cls-17" points="0 16.95 10.13 1.69 15.8 19.11 0 16.95"/></g></g></g></svg>